<svg
    width="563"
    height="285"
    viewBox="0 0 563 285"
    fill="none"
    xmlns="http://www.w3.org/2000/svg"
>
    <path
        d="M40.3631 27.8463C40.3631 34.4169 38.9444 39.2143 36.1071 42.2383C33.2698 45.2249 29.1071 46.7183 23.6191 46.7183H22.3871C16.8991 46.7183 12.7364 45.2249 9.89909 42.2383C7.06175 39.2143 5.64309 34.4169 5.64309 27.8463V6.06226H10.6831V27.3983C10.6831 30.5716 11.0191 33.1849 11.6911 35.2383C12.4004 37.2543 13.6511 38.8223 15.4431 39.9423C17.2351 41.0249 19.7551 41.5663 23.0031 41.5663C26.2511 41.5663 28.7711 41.0249 30.5631 39.9423C32.3551 38.8223 33.5871 37.2543 34.2591 35.2383C34.9684 33.1849 35.3231 30.5716 35.3231 27.3983V6.06226H40.3631V27.8463ZM60.993 18.0463C62.7103 18.0463 64.3343 18.4196 65.865 19.1663C67.3956 19.8756 68.6463 21.0703 69.617 22.7503C70.625 24.3929 71.129 26.5209 71.129 29.1343V45.8223H66.089V30.0303C66.089 27.5289 65.5476 25.7183 64.465 24.5983C63.4196 23.4409 61.721 22.8623 59.369 22.8623C58.2863 22.8623 57.1663 23.1609 56.009 23.7583C54.8516 24.3183 53.8623 25.2703 53.041 26.6143C52.257 27.9209 51.865 29.6383 51.865 31.7663V45.8223H46.825V18.9423H51.529V23.3663C52.4623 21.8356 53.825 20.5663 55.617 19.5583C57.4463 18.5503 59.2383 18.0463 60.993 18.0463ZM82.3281 5.16627V45.8223H77.2881V5.16627H82.3281ZM101.872 18.0463C104.037 18.0463 106.016 18.4943 107.808 19.3903C109.6 20.2863 111.019 21.6489 112.064 23.4783C113.147 25.3076 113.688 27.5663 113.688 30.2543V34.5103C113.688 37.1983 113.147 39.4569 112.064 41.2863C111.019 43.1156 109.6 44.4783 107.808 45.3743C106.016 46.2703 104.037 46.7183 101.872 46.7183H98.6241C96.4588 46.7183 94.4801 46.2703 92.6881 45.3743C90.8961 44.4783 89.4588 43.1156 88.3761 41.2863C87.3308 39.4569 86.8081 37.1983 86.8081 34.5103V30.2543C86.8081 27.5663 87.3308 25.3076 88.3761 23.4783C89.4588 21.6489 90.8961 20.2863 92.6881 19.3903C94.4801 18.4943 96.4588 18.0463 98.6241 18.0463H101.872ZM108.648 31.1503C108.648 28.4623 107.995 26.4089 106.688 24.9903C105.419 23.5716 103.272 22.8623 100.248 22.8623C97.2241 22.8623 95.0588 23.5716 93.7521 24.9903C92.4828 26.4089 91.8481 28.4623 91.8481 31.1503V33.6143C91.8481 36.3023 92.4828 38.3556 93.7521 39.7743C95.0588 41.1929 97.2241 41.9023 100.248 41.9023C103.272 41.9023 105.419 41.1929 106.688 39.7743C107.995 38.3556 108.648 36.3023 108.648 33.6143V31.1503ZM115.904 30.2543C115.904 27.6036 116.427 25.3636 117.472 23.5343C118.517 21.6676 119.917 20.2863 121.672 19.3903C123.427 18.4943 125.349 18.0463 127.44 18.0463H130.688C133.413 18.0463 135.747 18.8676 137.688 20.5103C139.629 22.1156 140.768 24.4863 141.104 27.6223H135.84C135.504 26.0543 134.795 24.8783 133.712 24.0943C132.667 23.2729 131.117 22.8623 129.064 22.8623C126.152 22.8623 124.061 23.5716 122.792 24.9903C121.56 26.4089 120.944 28.4623 120.944 31.1503V33.6143C120.944 36.3023 121.56 38.3556 122.792 39.7743C124.061 41.1929 126.152 41.9023 129.064 41.9023C131.304 41.9023 132.965 41.4356 134.048 40.5023C135.131 39.5689 135.784 38.2249 136.008 36.4703H141.216C140.992 39.8303 139.891 42.3876 137.912 44.1423C135.933 45.8596 133.525 46.7183 130.688 46.7183H127.44C125.349 46.7183 123.427 46.2703 121.672 45.3743C119.917 44.4783 118.517 43.1156 117.472 41.2863C116.427 39.4196 115.904 37.1609 115.904 34.5103V30.2543ZM164.65 45.8223L154.234 32.4943H150.202V45.8223H145.162V5.16627H150.202V27.4543H153.17L161.85 18.1023H168.794L157.874 29.3023L171.146 45.8223H164.65ZM212.57 6.06226V10.8783H199.69V45.8223H194.65V10.8783H181.77V6.06226H212.57ZM229.555 18.0463C231.272 18.0463 232.896 18.4196 234.427 19.1663C235.958 19.8756 237.208 21.0703 238.179 22.7503C239.187 24.3929 239.691 26.5209 239.691 29.1343V45.8223H234.651V30.0303C234.651 27.5289 234.11 25.7183 233.027 24.5983C231.982 23.4409 230.283 22.8623 227.931 22.8623C226.848 22.8623 225.728 23.1609 224.571 23.7583C223.414 24.3183 222.424 25.2703 221.603 26.6143C220.819 27.9209 220.427 29.6383 220.427 31.7663V45.8223H215.387V5.16627H220.427V22.8623C221.435 21.4436 222.798 20.2863 224.515 19.3903C226.232 18.4943 227.912 18.0463 229.555 18.0463ZM258.114 18.0463C260.317 18.0463 262.352 18.4943 264.218 19.3903C266.122 20.2863 267.634 21.6676 268.754 23.5343C269.912 25.3636 270.49 27.6036 270.49 30.2543V33.3343H248.482V33.6143C248.482 36.3023 249.136 38.3556 250.442 39.7743C251.786 41.1929 253.989 41.9023 257.05 41.9023C261.381 41.9023 264.032 40.3156 265.002 37.1423H270.266C269.781 40.2783 268.456 42.6676 266.29 44.3103C264.162 45.9156 261.624 46.7183 258.674 46.7183H255.426C251.917 46.7183 249.061 45.6916 246.858 43.6383C244.693 41.5849 243.61 38.5423 243.61 34.5103V30.2543C243.61 27.6036 244.17 25.3636 245.29 23.5343C246.448 21.6676 247.96 20.2863 249.826 19.3903C251.73 18.4943 253.784 18.0463 255.986 18.0463H258.114ZM257.05 22.8623C254.213 22.8623 252.141 23.4036 250.834 24.4863C249.565 25.5316 248.818 27.0996 248.594 29.1903H265.506C265.282 27.0996 264.517 25.5316 263.21 24.4863C261.941 23.4036 259.888 22.8623 257.05 22.8623ZM305.522 6.06226C309.069 6.06226 312.056 7.08893 314.482 9.14226C316.946 11.1583 318.178 14.3316 318.178 18.6623C318.178 23.1796 316.984 26.4089 314.594 28.3503C312.205 30.2543 309.181 31.2063 305.522 31.2063H292.306V45.8223H287.266V6.06226H305.522ZM304.458 26.3903C307.482 26.3903 309.629 25.7183 310.898 24.3743C312.205 22.9929 312.858 21.0889 312.858 18.6623C312.858 16.2356 312.205 14.3503 310.898 13.0063C309.629 11.6249 307.482 10.9343 304.458 10.9343H292.306V26.3903H304.458ZM332.673 18.0463C334.838 18.0463 336.817 18.4943 338.609 19.3903C340.401 20.2863 341.82 21.6489 342.865 23.4783C343.948 25.3076 344.489 27.5663 344.489 30.2543V34.5103C344.489 37.1983 343.948 39.4569 342.865 41.2863C341.82 43.1156 340.401 44.4783 338.609 45.3743C336.817 46.2703 334.838 46.7183 332.673 46.7183H329.425C327.26 46.7183 325.281 46.2703 323.489 45.3743C321.697 44.4783 320.26 43.1156 319.177 41.2863C318.132 39.4569 317.609 37.1983 317.609 34.5103V30.2543C317.609 27.5663 318.132 25.3076 319.177 23.4783C320.26 21.6489 321.697 20.2863 323.489 19.3903C325.281 18.4943 327.26 18.0463 329.425 18.0463H332.673ZM339.449 31.1503C339.449 28.4623 338.796 26.4089 337.489 24.9903C336.22 23.5716 334.073 22.8623 331.049 22.8623C328.025 22.8623 325.86 23.5716 324.553 24.9903C323.284 26.4089 322.649 28.4623 322.649 31.1503V33.6143C322.649 36.3023 323.284 38.3556 324.553 39.7743C325.86 41.1929 328.025 41.9023 331.049 41.9023C334.073 41.9023 336.22 41.1929 337.489 39.7743C338.796 38.3556 339.449 36.3023 339.449 33.6143V31.1503ZM383.51 18.9423H389.11L380.654 45.8223H372.03L367.438 23.7583H366.486L361.838 45.8223H353.214L344.758 18.9423H350.358L356.518 41.0063H358.142L362.454 18.9423H371.414L375.726 41.0063H377.35L383.51 18.9423ZM403.922 18.0463C406.125 18.0463 408.159 18.4943 410.026 19.3903C411.93 20.2863 413.442 21.6676 414.562 23.5343C415.719 25.3636 416.298 27.6036 416.298 30.2543V33.3343H394.29V33.6143C394.29 36.3023 394.943 38.3556 396.25 39.7743C397.594 41.1929 399.797 41.9023 402.858 41.9023C407.189 41.9023 409.839 40.3156 410.81 37.1423H416.074C415.589 40.2783 414.263 42.6676 412.098 44.3103C409.97 45.9156 407.431 46.7183 404.482 46.7183H401.234C397.725 46.7183 394.869 45.6916 392.666 43.6383C390.501 41.5849 389.418 38.5423 389.418 34.5103V30.2543C389.418 27.6036 389.978 25.3636 391.098 23.5343C392.255 21.6676 393.767 20.2863 395.634 19.3903C397.538 18.4943 399.591 18.0463 401.794 18.0463H403.922ZM402.858 22.8623C400.021 22.8623 397.949 23.4036 396.642 24.4863C395.373 25.5316 394.626 27.0996 394.402 29.1903H411.314C411.09 27.0996 410.325 25.5316 409.018 24.4863C407.749 23.4036 405.695 22.8623 402.858 22.8623ZM438.73 18.9423V23.7583H433.298C432.253 23.7583 431.151 24.0943 429.994 24.7663C428.837 25.4383 427.847 26.4836 427.026 27.9023C426.205 29.3209 425.794 31.0943 425.794 33.2223V45.8223H420.754V18.9423H425.794V23.9263C426.69 22.5076 427.997 21.3316 429.714 20.3983C431.431 19.4276 433.167 18.9423 434.922 18.9423H438.73ZM473.22 5.16627C476.431 5.16627 479.306 5.91293 481.844 7.40626C484.383 8.86226 486.362 11.0089 487.78 13.8463C489.236 16.6836 489.964 20.0809 489.964 24.0383V27.8463C489.964 31.8783 489.236 35.3129 487.78 38.1503C486.362 40.9503 484.383 43.0783 481.844 44.5343C479.306 45.9903 476.431 46.7183 473.22 46.7183H468.628C465.418 46.7183 462.543 45.9903 460.004 44.5343C457.466 43.0783 455.468 40.9503 454.012 38.1503C452.594 35.3129 451.884 31.8783 451.884 27.8463V24.0383C451.884 20.0063 452.594 16.5903 454.012 13.7903C455.468 10.9529 457.466 8.80626 460.004 7.35026C462.543 5.89426 465.418 5.16627 468.628 5.16627H473.22ZM484.924 24.4863C484.924 20.1929 483.823 16.7023 481.62 14.0143C479.455 11.3263 475.89 9.98226 470.924 9.98226C465.959 9.98226 462.375 11.3263 460.172 14.0143C458.007 16.7023 456.924 20.1929 456.924 24.4863V27.3983C456.924 31.6543 458.007 35.0889 460.172 37.7023C462.375 40.2783 465.959 41.5663 470.924 41.5663C475.89 41.5663 479.455 40.2783 481.62 37.7023C483.823 35.0889 484.924 31.6543 484.924 27.3983V24.4863ZM506.508 10.8783C504.38 10.8783 502.868 11.4756 501.972 12.6703C501.076 13.8649 500.628 15.6569 500.628 18.0463V18.9423H508.748V23.7583H500.628V45.8223H495.588V23.7583H491.612V18.9423H495.588V17.1503C495.588 13.2676 496.446 10.4489 498.164 8.69426C499.881 6.9396 502.121 6.06226 504.884 6.06226H512.108V10.8783H506.508Z"
        fill="white"
    />
    <path
        d="M52.289 105.629V110.445H39.409V145.389H34.369V110.445H21.489V105.629H52.289ZM83.1065 110.445H60.7065V122.821H81.8745V127.637H60.7065V140.573H83.1065V145.389H55.6665V105.629H83.1065V110.445ZM86.4533 123.605C86.4533 119.573 87.1627 116.157 88.5813 113.357C90.0373 110.52 92.0347 108.373 94.5733 106.917C97.112 105.461 99.9867 104.733 103.197 104.733H107.789C110.067 104.733 112.251 105.237 114.341 106.245C116.432 107.253 118.224 108.728 119.717 110.669C121.211 112.61 122.237 114.925 122.797 117.613H117.421C116.712 115.186 115.331 113.245 113.277 111.789C111.224 110.296 108.629 109.549 105.493 109.549C100.528 109.549 96.944 110.893 94.7413 113.581C92.576 116.269 91.4933 119.76 91.4933 124.053V126.965C91.4933 131.221 92.576 134.674 94.7413 137.325C96.944 139.976 100.528 141.301 105.493 141.301C108.891 141.301 111.635 140.48 113.725 138.837C115.816 137.194 117.16 135.029 117.757 132.341H122.965C122.517 135.29 121.547 137.829 120.053 139.957C118.597 142.048 116.787 143.634 114.621 144.717C112.493 145.762 110.216 146.285 107.789 146.285H103.197C99.9867 146.285 97.112 145.557 94.5733 144.101C92.0347 142.645 90.0373 140.517 88.5813 137.717C87.1627 134.88 86.4533 131.445 86.4533 127.413V123.605ZM156.134 105.629H161.174V145.389H156.134V127.637H133.062V145.389H128.022V105.629H133.062V122.821H156.134V105.629ZM197.04 105.629H202.08V145.389H192.28L175.816 110.445H174.08V145.389H169.04V105.629H178.84L195.304 140.573H197.04V105.629ZM228.71 104.733C231.921 104.733 234.795 105.48 237.334 106.973C239.873 108.429 241.851 110.576 243.27 113.413C244.726 116.25 245.454 119.648 245.454 123.605V127.413C245.454 131.445 244.726 134.88 243.27 137.717C241.851 140.517 239.873 142.645 237.334 144.101C234.795 145.557 231.921 146.285 228.71 146.285H224.118C220.907 146.285 218.033 145.557 215.494 144.101C212.955 142.645 210.958 140.517 209.502 137.717C208.083 134.88 207.374 131.445 207.374 127.413V123.605C207.374 119.573 208.083 116.157 209.502 113.357C210.958 110.52 212.955 108.373 215.494 106.917C218.033 105.461 220.907 104.733 224.118 104.733H228.71ZM240.414 124.053C240.414 119.76 239.313 116.269 237.11 113.581C234.945 110.893 231.379 109.549 226.414 109.549C221.449 109.549 217.865 110.893 215.662 113.581C213.497 116.269 212.414 119.76 212.414 124.053V126.965C212.414 131.221 213.497 134.656 215.662 137.269C217.865 139.845 221.449 141.133 226.414 141.133C231.379 141.133 234.945 139.845 237.11 137.269C239.313 134.656 240.414 131.221 240.414 126.965V124.053ZM255.788 140.573H276.396V145.389H250.748V105.629H255.788V140.573ZM297.457 104.733C300.667 104.733 303.542 105.48 306.081 106.973C308.619 108.429 310.598 110.576 312.017 113.413C313.473 116.25 314.201 119.648 314.201 123.605V127.413C314.201 131.445 313.473 134.88 312.017 137.717C310.598 140.517 308.619 142.645 306.081 144.101C303.542 145.557 300.667 146.285 297.457 146.285H292.865C289.654 146.285 286.779 145.557 284.241 144.101C281.702 142.645 279.705 140.517 278.249 137.717C276.83 134.88 276.121 131.445 276.121 127.413V123.605C276.121 119.573 276.83 116.157 278.249 113.357C279.705 110.52 281.702 108.373 284.241 106.917C286.779 105.461 289.654 104.733 292.865 104.733H297.457ZM309.161 124.053C309.161 119.76 308.059 116.269 305.857 113.581C303.691 110.893 300.126 109.549 295.161 109.549C290.195 109.549 286.611 110.893 284.409 113.581C282.243 116.269 281.161 119.76 281.161 124.053V126.965C281.161 131.221 282.243 134.656 284.409 137.269C286.611 139.845 290.195 141.133 295.161 141.133C300.126 141.133 303.691 139.845 305.857 137.269C308.059 134.656 309.161 131.221 309.161 126.965V124.053ZM354.774 145.389H351.75L350.35 141.245C348.894 142.888 347.14 144.138 345.086 144.997C343.033 145.856 340.774 146.285 338.31 146.285H333.718C330.508 146.285 327.633 145.557 325.094 144.101C322.556 142.645 320.558 140.517 319.102 137.717C317.684 134.88 316.974 131.445 316.974 127.413V123.605C316.974 119.573 317.684 116.157 319.102 113.357C320.558 110.52 322.556 108.373 325.094 106.917C327.633 105.461 330.508 104.733 333.718 104.733H338.31C342.305 104.733 345.702 105.872 348.502 108.149C351.302 110.426 353.188 113.656 354.158 117.837H348.838C347.942 115.224 346.468 113.189 344.414 111.733C342.398 110.277 339.598 109.549 336.014 109.549C331.049 109.549 327.465 110.893 325.262 113.581C323.097 116.269 322.014 119.76 322.014 124.053V126.965C322.014 131.221 323.097 134.674 325.262 137.325C327.465 139.976 331.049 141.301 336.014 141.301C340.345 141.301 343.574 140.274 345.702 138.221C347.83 136.168 349.118 133.405 349.566 129.933V129.821H336.35V125.005H354.774V145.389ZM382.837 105.629H388.437L377.293 129.485H373.989V145.389H368.949V129.485H365.645L354.501 105.629H360.101L368.557 124.669H374.381L382.837 105.629Z"
        fill="white"
    />
    <path
        d="M1.16309 96.7057L22.322 80.824L409.695 80.8223V155.693L390.695 169.955L1.16309 169.956V121.987"
        stroke="#E2255E"
        strokeWidth="2"
        strokeLinecap="round"
    />
    <path
        d="M465.615 110.445H443.775V122.821H464.383V127.637H443.775V145.389H438.735V105.629H465.615V110.445ZM486.067 118.509V123.325H480.635C479.59 123.325 478.488 123.661 477.331 124.333C476.174 125.005 475.184 126.05 474.363 127.469C473.542 128.888 473.131 130.661 473.131 132.789V145.389H468.091V118.509H473.131V123.493C474.027 122.074 475.334 120.898 477.051 119.965C478.768 118.994 480.504 118.509 482.259 118.509H486.067ZM501.972 117.613C504.137 117.613 506.116 118.061 507.908 118.957C509.7 119.853 511.119 121.216 512.164 123.045C513.247 124.874 513.788 127.133 513.788 129.821V134.077C513.788 136.765 513.247 139.024 512.164 140.853C511.119 142.682 509.7 144.045 507.908 144.941C506.116 145.837 504.137 146.285 501.972 146.285H498.724C496.559 146.285 494.58 145.837 492.788 144.941C490.996 144.045 489.559 142.682 488.476 140.853C487.431 139.024 486.908 136.765 486.908 134.077V129.821C486.908 127.133 487.431 124.874 488.476 123.045C489.559 121.216 490.996 119.853 492.788 118.957C494.58 118.061 496.559 117.613 498.724 117.613H501.972ZM508.748 130.717C508.748 128.029 508.095 125.976 506.788 124.557C505.519 123.138 503.372 122.429 500.348 122.429C497.324 122.429 495.159 123.138 493.852 124.557C492.583 125.976 491.948 128.029 491.948 130.717V133.181C491.948 135.869 492.583 137.922 493.852 139.341C495.159 140.76 497.324 141.469 500.348 141.469C503.372 141.469 505.519 140.76 506.788 139.341C508.095 137.922 508.748 135.869 508.748 133.181V130.717ZM548.988 117.613C550.332 117.613 551.732 117.986 553.188 118.733C554.644 119.48 555.876 120.693 556.884 122.373C557.929 124.016 558.452 126.125 558.452 128.701V145.389H553.412V129.597C553.412 127.17 552.871 125.378 551.788 124.221C550.705 123.026 549.231 122.429 547.364 122.429C545.647 122.429 544.135 123.138 542.828 124.557C541.521 125.938 540.868 128.197 540.868 131.333V145.389H535.828V129.597C535.828 127.17 535.287 125.378 534.204 124.221C533.121 123.026 531.647 122.429 529.78 122.429C528.063 122.429 526.551 123.138 525.244 124.557C523.937 125.938 523.284 128.197 523.284 131.333V145.389H518.244V118.509H523.284V122.317C524.18 120.898 525.356 119.76 526.812 118.901C528.305 118.042 529.836 117.613 531.404 117.613C533.047 117.613 534.689 118.136 536.332 119.181C538.012 120.189 539.244 121.757 540.028 123.885C540.812 122.056 542.025 120.562 543.668 119.405C545.348 118.21 547.121 117.613 548.988 117.613Z"
        fill="white"
    />
    <path
        d="M32.5231 218.761V223.577H19.6431V258.521H14.6031V223.577H1.72309V218.761H32.5231ZM70.6468 251.689C70.6842 252.473 70.9082 253.033 71.3188 253.369C71.7668 253.668 72.2708 253.798 72.8308 253.761V258.577C71.0762 258.577 69.6202 258.409 68.4628 258.073C67.3428 257.737 66.5402 256.934 66.0548 255.665C65.1962 256.972 63.8895 257.924 62.1348 258.521C60.3802 259.081 58.4948 259.361 56.4788 259.361C53.4548 259.361 50.9162 258.67 48.8628 257.289C46.8095 255.908 45.7828 253.649 45.7828 250.513V249.897C45.7828 247.396 46.7535 245.38 48.6948 243.849C50.6362 242.281 53.2308 241.497 56.4788 241.497H65.6068C65.5695 240.116 65.4015 239.014 65.1028 238.193C64.8042 237.334 64.2255 236.681 63.3668 236.233C62.5455 235.785 61.3322 235.561 59.7268 235.561H46.7908C45.7455 235.561 44.6442 235.897 43.4868 236.569C42.3295 237.241 41.3402 238.286 40.5188 239.705C39.6975 241.124 39.2868 242.897 39.2868 245.025V258.521H34.2468V231.641H39.2868V235.729C40.1828 234.31 41.4895 233.134 43.2068 232.201C44.9242 231.23 46.6602 230.745 48.4148 230.745H61.3508C64.1135 230.745 66.3535 231.622 68.0708 233.377C69.7882 235.132 70.6468 237.95 70.6468 241.833V251.689ZM58.1028 254.545C59.7828 254.545 61.4442 254.209 63.0868 253.537C64.7668 252.865 65.6068 251.745 65.6068 250.177V246.313H58.1028C53.2495 246.313 50.8228 247.638 50.8228 250.289C50.8228 251.857 51.3642 252.958 52.4468 253.593C53.5668 254.228 55.4522 254.545 58.1028 254.545ZM101.914 217.865V258.521H96.8736V253.705C96.015 255.348 94.7083 256.71 92.9536 257.793C91.2363 258.876 89.5003 259.417 87.7456 259.417C84.311 259.417 81.4736 258.39 79.2336 256.337C77.031 254.246 75.9296 251.204 75.9296 247.209V242.953C75.9296 238.958 77.031 235.934 79.2336 233.881C81.4736 231.79 84.311 230.745 87.7456 230.745C89.5003 230.745 91.2363 231.286 92.9536 232.369C94.7083 233.452 96.015 234.814 96.8736 236.457V217.865H101.914ZM88.8096 254.601C90.079 254.601 91.3296 254.321 92.5616 253.761C93.7936 253.201 94.8203 252.249 95.6416 250.905C96.463 249.561 96.8736 247.825 96.8736 245.697V244.465C96.8736 242.337 96.463 240.601 95.6416 239.257C94.8203 237.913 93.7936 236.961 92.5616 236.401C91.3296 235.841 90.079 235.561 88.8096 235.561C86.159 235.561 84.1803 236.289 82.8736 237.745C81.6043 239.201 80.9696 241.236 80.9696 243.849V246.313C80.9696 248.926 81.6043 250.961 82.8736 252.417C84.1803 253.873 86.159 254.601 88.8096 254.601ZM110.537 224.585C109.603 224.585 108.801 224.268 108.129 223.633C107.494 222.998 107.177 222.214 107.177 221.281C107.177 220.348 107.494 219.545 108.129 218.873C108.801 218.201 109.603 217.865 110.537 217.865C111.47 217.865 112.254 218.201 112.889 218.873C113.561 219.545 113.897 220.348 113.897 221.281C113.897 222.214 113.561 222.998 112.889 223.633C112.254 224.268 111.47 224.585 110.537 224.585ZM108.017 258.521V231.641H113.057V258.521H108.017ZM125.113 236.457V246.537C125.113 248.926 125.561 250.718 126.457 251.913C127.353 253.108 128.865 253.705 130.993 253.705H132.673V258.521H129.369C126.606 258.521 124.366 257.644 122.649 255.889C120.931 254.134 120.073 251.316 120.073 247.433V236.457H116.097V231.641H120.073V217.865H125.113V231.641H132.673V236.457H125.113ZM139.635 224.585C138.702 224.585 137.899 224.268 137.227 223.633C136.592 222.998 136.275 222.214 136.275 221.281C136.275 220.348 136.592 219.545 137.227 218.873C137.899 218.201 138.702 217.865 139.635 217.865C140.568 217.865 141.352 218.201 141.987 218.873C142.659 219.545 142.995 220.348 142.995 221.281C142.995 222.214 142.659 222.998 141.987 223.633C141.352 224.268 140.568 224.585 139.635 224.585ZM137.115 258.521V231.641H142.155V258.521H137.115ZM161.379 230.745C163.544 230.745 165.523 231.193 167.315 232.089C169.107 232.985 170.525 234.348 171.571 236.177C172.653 238.006 173.195 240.265 173.195 242.953V247.209C173.195 249.897 172.653 252.156 171.571 253.985C170.525 255.814 169.107 257.177 167.315 258.073C165.523 258.969 163.544 259.417 161.379 259.417H158.131C155.965 259.417 153.987 258.969 152.195 258.073C150.403 257.177 148.965 255.814 147.883 253.985C146.837 252.156 146.315 249.897 146.315 247.209V242.953C146.315 240.265 146.837 238.006 147.883 236.177C148.965 234.348 150.403 232.985 152.195 232.089C153.987 231.193 155.965 230.745 158.131 230.745H161.379ZM168.155 243.849C168.155 241.161 167.501 239.108 166.195 237.689C164.925 236.27 162.779 235.561 159.755 235.561C156.731 235.561 154.565 236.27 153.259 237.689C151.989 239.108 151.355 241.161 151.355 243.849V246.313C151.355 249.001 151.989 251.054 153.259 252.473C154.565 253.892 156.731 254.601 159.755 254.601C162.779 254.601 164.925 253.892 166.195 252.473C167.501 251.054 168.155 249.001 168.155 246.313V243.849ZM191.819 230.745C193.536 230.745 195.16 231.118 196.691 231.865C198.221 232.574 199.472 233.769 200.443 235.449C201.451 237.092 201.955 239.22 201.955 241.833V258.521H196.915V242.729C196.915 240.228 196.373 238.417 195.291 237.297C194.245 236.14 192.547 235.561 190.195 235.561C189.112 235.561 187.992 235.86 186.835 236.457C185.677 237.017 184.688 237.969 183.867 239.313C183.083 240.62 182.691 242.337 182.691 244.465V258.521H177.651V231.641H182.355V236.065C183.288 234.534 184.651 233.265 186.443 232.257C188.272 231.249 190.064 230.745 191.819 230.745ZM231.298 251.633C231.298 253.014 232.026 253.705 233.482 253.705V258.521C231.727 258.521 230.271 258.353 229.114 258.017C227.994 257.681 227.191 256.878 226.706 255.609C225.847 256.953 224.54 257.924 222.786 258.521C221.031 259.081 219.146 259.361 217.13 259.361C214.106 259.361 211.567 258.67 209.514 257.289C207.46 255.908 206.434 253.649 206.434 250.513V249.897C206.434 247.396 207.404 245.38 209.346 243.849C211.287 242.281 213.882 241.497 217.13 241.497H226.258C226.22 240.116 226.052 239.014 225.754 238.193C225.455 237.334 224.876 236.681 224.018 236.233C223.196 235.785 221.983 235.561 220.378 235.561H217.018C215.636 235.561 214.479 235.897 213.546 236.569C212.65 237.204 212.202 237.988 212.202 238.921H207.162C207.162 237.54 207.554 236.233 208.338 235.001C209.159 233.732 210.279 232.705 211.698 231.921C213.154 231.137 214.759 230.745 216.514 230.745H222.002C224.764 230.745 227.004 231.622 228.722 233.377C230.439 235.132 231.298 237.95 231.298 241.833V251.633ZM218.754 254.545C220.434 254.545 222.095 254.209 223.738 253.537C225.418 252.865 226.258 251.745 226.258 250.177V245.753H218.754C215.954 245.753 214.031 246.22 212.986 247.153C211.978 248.049 211.474 249.094 211.474 250.289C211.474 251.857 212.015 252.958 213.098 253.593C214.218 254.228 216.103 254.545 218.754 254.545ZM241.32 217.865V258.521H236.28V217.865H241.32ZM286.68 218.761V223.577H273.8V258.521H268.76V223.577H255.88V218.761H286.68ZM297.017 230.745C299.182 230.745 301.161 231.193 302.953 232.089C304.745 232.985 306.163 234.348 307.209 236.177C308.291 238.006 308.833 240.265 308.833 242.953V247.209C308.833 249.897 308.291 252.156 307.209 253.985C306.163 255.814 304.745 257.177 302.953 258.073C301.161 258.969 299.182 259.417 297.017 259.417H293.769C291.603 259.417 289.625 258.969 287.833 258.073C286.041 257.177 284.603 255.814 283.521 253.985C282.475 252.156 281.953 249.897 281.953 247.209V242.953C281.953 240.265 282.475 238.006 283.521 236.177C284.603 234.348 286.041 232.985 287.833 232.089C289.625 231.193 291.603 230.745 293.769 230.745H297.017ZM303.793 243.849C303.793 241.161 303.139 239.108 301.833 237.689C300.563 236.27 298.417 235.561 295.393 235.561C292.369 235.561 290.203 236.27 288.897 237.689C287.627 239.108 286.993 241.161 286.993 243.849V246.313C286.993 249.001 287.627 251.054 288.897 252.473C290.203 253.892 292.369 254.601 295.393 254.601C298.417 254.601 300.563 253.892 301.833 252.473C303.139 251.054 303.793 249.001 303.793 246.313V243.849Z"
        fill="white"
    />
    <path
        d="M405.584 218.761H410.904L403.4 258.521H392.872L387.16 223.577H385.536L379.824 258.521H369.296L361.792 218.761H367.112L373.44 253.705H375.568L381.28 218.761H391.416L397.128 253.705H399.256L405.584 218.761ZM441.996 223.577H419.596V235.953H440.764V240.769H419.596V253.705H441.996V258.521H414.556V218.761H441.996V223.577ZM470.873 236.849C473.225 237.484 475.017 238.697 476.249 240.489C477.481 242.244 478.097 244.316 478.097 246.705C478.097 249.505 477.406 251.801 476.025 253.593C474.643 255.348 473.019 256.617 471.153 257.401C469.286 258.148 467.569 258.521 466.001 258.521H445.897V218.761H463.481C467.475 218.761 470.518 219.638 472.609 221.393C474.737 223.148 475.801 225.686 475.801 229.009C475.801 230.614 475.353 232.145 474.457 233.601C473.561 235.057 472.366 236.14 470.873 236.849ZM450.937 223.577V235.001H463.201C468.054 235.001 470.481 233.097 470.481 229.289C470.481 225.481 468.054 223.577 463.201 223.577H450.937ZM464.377 253.705C467.326 253.705 469.454 253.033 470.761 251.689C472.105 250.308 472.777 248.553 472.777 246.425C472.777 244.708 472.217 243.177 471.097 241.833C469.977 240.489 467.867 239.817 464.769 239.817H450.937V253.705H464.377Z"
        fill="white"
    />
    <path
        d="M498.685 238.585C500.813 239.332 502.642 240.433 504.173 241.889C505.704 243.308 506.469 245.249 506.469 247.713C506.469 250.102 505.834 252.193 504.565 253.985C503.333 255.74 501.616 257.102 499.413 258.073C497.21 259.006 494.728 259.473 491.965 259.473C488.306 259.473 485.245 258.428 482.781 256.337C480.317 254.209 478.842 251.334 478.357 247.713H483.733C483.77 248.945 484.181 250.102 484.965 251.185C485.749 252.23 486.813 253.07 488.157 253.705C489.501 254.34 490.957 254.657 492.525 254.657C495.25 254.657 497.416 254.004 499.021 252.697C500.626 251.353 501.429 249.505 501.429 247.153C501.429 245.286 500.85 243.905 499.693 243.009C498.573 242.113 497.136 241.553 495.381 241.329C493.626 241.068 491.349 240.937 488.549 240.937H486.813V236.401H488.549C491.274 236.401 493.477 236.289 495.157 236.065C496.837 235.841 498.2 235.281 499.245 234.385C500.328 233.452 500.869 232.052 500.869 230.185C500.869 227.796 500.141 225.948 498.685 224.641C497.266 223.334 495.213 222.681 492.525 222.681C490.957 222.681 489.501 222.998 488.157 223.633C486.813 224.268 485.749 225.126 484.965 226.209C484.181 227.254 483.77 228.393 483.733 229.625H478.357C478.842 226.004 480.317 223.148 482.781 221.057C485.245 218.929 488.306 217.865 491.965 217.865C494.541 217.865 496.893 218.35 499.021 219.321C501.149 220.254 502.829 221.617 504.061 223.409C505.293 225.201 505.909 227.273 505.909 229.625C505.909 231.902 505.181 233.788 503.725 235.281C502.269 236.737 500.589 237.838 498.685 238.585Z"
        fill="#E2255E"
    />
    <path
        d="M535.74 209.837L514.581 193.956L335.163 193.956V268.825M354.163 283.086L535.74 283.086V235.118"
        stroke="#E2255E"
        strokeWidth="2"
        strokeLinecap="round"
    />
</svg>