<svg width="1002" height="178" viewBox="0 0 1002 178" fill="none" xmlns="http://www.w3.org/2000/svg">
<mask id="path-1-inside-1_6_1030" fill="white">
<path d="M13.9662 22.6557L1.73388 1.68601L0.842834 0.271484H137.849L159.443 35.43L179.949 0.271484H207.11L138.453 118.422H127.589L115.215 96.0898L125.325 95.3353L146.601 56.2535L123.62 22.6557H82.1174L60.7109 61.1L114.882 155.463L104.398 177.743L34.9358 58.0419L55.0317 22.6557H13.9662Z"/>
</mask>
<path d="M1.73388 1.68601L38.234 -19.6057L37.8713 -20.2273L37.4878 -20.8362L1.73388 1.68601ZM13.9662 22.6557L-22.5339 43.9474L-10.3046 64.9119H13.9662V22.6557ZM55.0317 22.6557L91.7761 43.5229L127.624 -19.6006H55.0317V22.6557ZM34.9358 58.0419L-1.80863 37.1747L-13.7881 58.2689L-1.61257 79.2506L34.9358 58.0419ZM104.398 177.743L67.8493 198.952L108.308 268.674L142.632 195.736L104.398 177.743ZM114.882 155.463L153.117 173.456L162.495 153.527L151.529 134.425L114.882 155.463ZM60.7109 61.1L23.7921 40.5429L12.1689 61.4173L24.0641 82.138L60.7109 61.1ZM82.1174 22.6557V-19.6006H57.2811L45.1986 2.0986L82.1174 22.6557ZM123.62 22.6557L158.497 -1.20115L145.912 -19.6006H123.62V22.6557ZM146.601 56.2535L183.714 76.4579L196.08 53.7432L181.479 32.3967L146.601 56.2535ZM125.325 95.3353L128.47 137.474L151.43 135.761L162.438 115.54L125.325 95.3353ZM115.215 96.0898L112.07 53.9507L46.2795 58.8604L78.253 116.569L115.215 96.0898ZM127.589 118.422L90.6264 138.901L102.692 160.679H127.589V118.422ZM138.453 118.422V160.679H162.771L174.989 139.653L138.453 118.422ZM207.11 0.271484L243.646 21.5022L280.538 -41.9848H207.11V0.271484ZM179.949 0.271484V-41.9848H155.677L143.448 -21.0179L179.949 0.271484ZM159.443 35.43L123.436 57.5448L160.379 117.697L195.944 56.7194L159.443 35.43ZM137.849 0.271484L173.857 -21.8433L161.486 -41.9848H137.849V0.271484ZM0.842834 0.271484V-41.9848H-75.7165L-34.9111 22.7937L0.842834 0.271484ZM-34.7662 22.9777L-22.5339 43.9474L50.4662 1.36397L38.234 -19.6057L-34.7662 22.9777ZM13.9662 64.9119H55.0317V-19.6006H13.9662V64.9119ZM18.2873 1.78846L-1.80863 37.1747L71.6802 78.9091L91.7761 43.5229L18.2873 1.78846ZM-1.61257 79.2506L67.8493 198.952L140.946 156.535L71.4841 36.8332L-1.61257 79.2506ZM142.632 195.736L153.117 173.456L76.6482 137.471L66.1634 159.751L142.632 195.736ZM151.529 134.425L97.3578 40.062L24.0641 82.138L78.2356 176.501L151.529 134.425ZM97.6298 81.657L119.036 43.2127L45.1986 2.0986L23.7921 40.5429L97.6298 81.657ZM82.1174 64.9119H123.62V-19.6006H82.1174V64.9119ZM88.7422 46.5125L111.724 80.1104L181.479 32.3967L158.497 -1.20115L88.7422 46.5125ZM109.488 36.0492L88.2121 75.1309L162.438 115.54L183.714 76.4579L109.488 36.0492ZM122.18 53.1962L112.07 53.9507L118.36 138.229L128.47 137.474L122.18 53.1962ZM78.253 116.569L90.6264 138.901L164.551 97.9432L152.177 75.6108L78.253 116.569ZM127.589 160.679H138.453V76.166H127.589V160.679ZM174.989 139.653L243.646 21.5022L170.575 -20.9593L101.917 97.1915L174.989 139.653ZM207.11 -41.9848H179.949V42.5277H207.11V-41.9848ZM143.448 -21.0179L122.941 14.1406L195.944 56.7194L216.45 21.5609L143.448 -21.0179ZM195.45 13.3152L173.857 -21.8433L101.842 22.3863L123.436 57.5448L195.45 13.3152ZM137.849 -41.9848H0.842834V42.5277H137.849V-41.9848ZM-34.9111 22.7937L-34.02 24.2082L37.4878 -20.8362L36.5967 -22.2507L-34.9111 22.7937Z" fill="#E2255E" mask="url(#path-1-inside-1_6_1030)"/>
<path d="M318.166 54.7016H287.133V139.507H267.642V54.7016H237.023V38.874H318.166V54.7016ZM391.153 95.4111H349.821V123.818H398.133V139.507H330.33V38.874H397.926V54.7016H349.821V80.0673H391.153V95.4111ZM484.114 107.99C483.792 113.059 482.686 117.62 480.797 121.675C478.953 125.73 476.465 129.186 473.332 132.043C470.199 134.9 466.466 137.111 462.135 138.678C457.804 140.198 453.012 140.959 447.759 140.959C443.612 140.959 439.765 140.429 436.217 139.369C432.715 138.263 429.558 136.697 426.748 134.669C424.167 132.78 421.863 130.499 419.836 127.827C417.855 125.154 416.173 122.205 414.79 118.98C413.454 115.754 412.417 112.206 411.68 108.336C410.989 104.465 410.644 100.364 410.644 96.0332V82.4864C410.644 78.4315 410.966 74.5841 411.611 70.9439C412.256 67.2577 413.224 63.848 414.514 60.7147C415.989 56.8903 417.924 53.4805 420.32 50.4855C422.716 47.4905 425.434 44.9562 428.476 42.8827C431.194 41.1318 434.166 39.7955 437.392 38.874C440.663 37.9063 444.165 37.4225 447.897 37.4225C453.427 37.4225 458.334 38.2058 462.619 39.7725C466.95 41.3391 470.636 43.5739 473.678 46.4768C476.719 49.3796 479.115 52.9276 480.866 57.1207C482.617 61.3137 483.723 66.0367 484.183 71.2895H464.831C464.646 68.2945 464.186 65.6681 463.448 63.4103C462.757 61.1525 461.744 59.2633 460.407 57.7427C459.025 56.2682 457.297 55.1624 455.224 54.4251C453.196 53.6418 450.754 53.2502 447.897 53.2502C446.377 53.2502 444.948 53.4114 443.612 53.734C442.322 54.0565 441.124 54.5403 440.018 55.1854C438.129 56.2913 436.516 57.8809 435.18 59.9544C433.89 61.9818 432.853 64.3548 432.07 67.0734C431.471 69.193 431.033 71.5429 430.756 74.1233C430.48 76.6575 430.342 79.3992 430.342 82.3481V96.0332C430.342 100.042 430.549 103.636 430.964 106.815C431.424 109.949 432.116 112.69 433.037 115.04C433.682 116.653 434.443 118.081 435.318 119.325C436.24 120.569 437.276 121.606 438.428 122.436C439.672 123.357 441.055 124.048 442.575 124.509C444.142 124.924 445.87 125.131 447.759 125.131C450.293 125.131 452.574 124.809 454.601 124.164C456.629 123.518 458.357 122.505 459.785 121.122C461.214 119.74 462.343 117.966 463.172 115.8C464.001 113.635 464.508 111.031 464.692 107.99H484.114ZM565.671 139.507H546.457V95.8949H517.981V139.507H498.698V38.874H517.981V80.1364H546.457V38.874H565.671V139.507ZM616.679 93.6832L643.566 38.874H652.965L620.688 101.632L620.55 139.507H612.878L612.74 101.632L580.462 38.874H590L616.679 93.6832ZM736.458 95.8949C736.412 99.3047 736.112 102.807 735.559 106.401C735.006 109.949 734.154 113.381 733.002 116.699C731.85 120.063 730.376 123.219 728.579 126.168C726.782 129.071 724.639 131.605 722.151 133.771C719.663 135.982 716.806 137.733 713.58 139.024C710.355 140.268 706.761 140.89 702.798 140.89C698.789 140.89 695.172 140.268 691.947 139.024C688.721 137.733 685.865 135.982 683.377 133.771C680.888 131.605 678.723 129.048 676.88 126.099C675.083 123.15 673.608 120.017 672.456 116.699C671.258 113.335 670.36 109.879 669.761 106.331C669.162 102.784 668.839 99.3047 668.793 95.8949V82.5555C668.839 79.1457 669.139 75.6669 669.691 72.1189C670.29 68.5249 671.189 65.069 672.387 61.7515C673.539 58.3878 675.013 55.2545 676.81 52.3516C678.607 49.4027 680.75 46.7993 683.238 44.5415C685.726 42.3758 688.583 40.671 691.809 39.4269C695.034 38.1367 698.651 37.4916 702.66 37.4916C706.623 37.4916 710.217 38.1367 713.442 39.4269C716.668 40.671 719.547 42.3758 722.082 44.5415C724.57 46.7532 726.712 49.3336 728.509 52.2825C730.306 55.2315 731.804 58.3648 733.002 61.6823C734.154 65.046 735.006 68.5249 735.559 72.1189C736.112 75.6669 736.412 79.1457 736.458 82.5555V95.8949ZM728.371 82.4172C728.325 79.7447 728.118 76.9801 727.749 74.1233C727.381 71.2665 726.782 68.4327 725.952 65.622C725.123 62.9034 724.04 60.3 722.704 57.8118C721.414 55.2776 719.824 53.0658 717.935 51.1767C716.045 49.2875 713.834 47.79 711.299 46.6841C708.765 45.5782 705.885 45.0253 702.66 45.0253C699.388 45.0253 696.486 45.6013 693.951 46.7532C691.463 47.8591 689.274 49.3336 687.385 51.1767C685.496 53.1119 683.883 55.3236 682.547 57.8118C681.257 60.3 680.22 62.9264 679.437 65.6911C678.607 68.5018 677.985 71.3356 677.571 74.1924C677.202 77.0492 676.995 79.7908 676.949 82.4172V95.8949C676.995 98.5213 677.202 101.286 677.571 104.189C677.985 107.046 678.607 109.856 679.437 112.621C680.266 115.432 681.326 118.104 682.616 120.639C683.952 123.127 685.565 125.315 687.454 127.205C689.344 129.094 691.555 130.614 694.09 131.766C696.624 132.872 699.527 133.425 702.798 133.425C706.024 133.425 708.903 132.872 711.438 131.766C713.972 130.614 716.184 129.094 718.073 127.205C719.962 125.315 721.552 123.127 722.842 120.639C724.132 118.104 725.192 115.455 726.021 112.69C726.851 109.926 727.427 107.115 727.749 104.258C728.118 101.355 728.325 98.5674 728.371 95.8949V82.4172ZM819.259 38.874L819.328 107.092C819.328 111.653 818.568 115.985 817.047 120.086C815.527 124.14 813.384 127.711 810.62 130.799C807.855 133.886 804.537 136.351 800.667 138.194C796.842 139.991 792.534 140.89 787.742 140.89C782.904 140.89 778.55 139.991 774.679 138.194C770.809 136.397 767.514 133.932 764.796 130.799C762.077 127.758 759.957 124.187 758.437 120.086C756.962 115.985 756.202 111.653 756.156 107.092L756.225 38.874H764.035L764.243 107.092C764.289 110.548 764.842 113.865 765.901 117.045C766.961 120.224 768.482 123.035 770.463 125.477C772.444 127.965 774.887 129.946 777.789 131.421C780.692 132.895 784.01 133.632 787.742 133.632C791.474 133.632 794.769 132.895 797.626 131.421C800.529 129.946 802.971 127.965 804.952 125.477C806.933 123.035 808.431 120.224 809.445 117.045C810.504 113.819 811.08 110.502 811.173 107.092L811.311 38.874H819.259ZM904.065 139.507H895.909L849.67 54.7707L849.601 139.507H841.446V38.874H849.601L895.84 123.472V38.874H904.065V139.507ZM991.082 127.55C989.378 129.578 987.488 131.352 985.415 132.872C983.387 134.393 981.222 135.683 978.918 136.743C975.969 138.171 972.836 139.208 969.518 139.853C966.247 140.544 962.883 140.89 959.427 140.89C955.418 140.844 951.732 140.198 948.368 138.954C945.051 137.71 942.079 136.028 939.452 133.909C936.78 131.789 934.453 129.301 932.472 126.444C930.49 123.541 928.855 120.431 927.564 117.114C926.182 113.796 925.145 110.34 924.454 106.746C923.809 103.106 923.464 99.489 923.418 95.8949V81.7952C923.464 78.2472 923.786 74.6993 924.385 71.1513C925.03 67.6033 925.975 64.1936 927.219 60.9221C928.463 57.6506 930.03 54.5864 931.919 51.7296C933.808 48.8728 936.066 46.3846 938.692 44.265C941.226 42.1915 944.129 40.5558 947.401 39.3578C950.672 38.1137 954.289 37.4916 958.252 37.4916C962.768 37.4916 966.915 38.2058 970.693 39.6342C974.471 41.0626 977.789 43.0901 980.646 45.7165C983.503 48.3429 985.807 51.4762 987.557 55.1163C989.354 58.7564 990.483 62.7882 990.944 67.2116H982.858C982.212 63.9862 981.222 60.9912 979.886 58.2265C978.595 55.4619 976.937 53.0889 974.909 51.1075C972.882 49.1262 970.486 47.5826 967.721 46.4768C965.002 45.3709 961.869 44.818 958.321 44.818C955.096 44.818 952.193 45.3479 949.613 46.4076C947.032 47.4674 944.774 48.9189 942.839 50.762C940.858 52.559 939.176 54.6786 937.794 57.1207C936.411 59.5628 935.259 62.1431 934.338 64.8617C933.462 67.5803 932.794 70.391 932.334 73.2939C931.919 76.1507 931.688 78.9384 931.642 81.657V95.8949C931.688 98.7057 931.942 101.586 932.403 104.534C932.909 107.483 933.647 110.34 934.614 113.105C935.582 115.87 936.803 118.496 938.278 120.984C939.752 123.472 941.526 125.638 943.599 127.481C945.627 129.324 947.954 130.799 950.58 131.905C953.207 133.01 956.179 133.586 959.496 133.632C961.57 133.679 963.712 133.586 965.924 133.356C968.182 133.08 970.347 132.596 972.421 131.905C974.541 131.259 976.499 130.384 978.296 129.278C980.139 128.126 981.729 126.675 983.065 124.924L983.134 98.936H959.22V91.6788H990.944L991.082 127.55Z" fill="white"/>
</svg>
