<svg width="374" height="322" viewBox="0 0 374 322" fill="none" xmlns="http://www.w3.org/2000/svg">
	<path d="M289.164 65.2292L325.657 2.66113H370.135L248.339 212.257H231.028L210.743 175.646L225.906 174.514L226.993 174.433L227.514 173.476L265.978 102.823L266.563 101.748L265.872 100.738L224.325 39.9986L223.73 39.1278H222.675H147.646H146.47L145.898 40.1548L107.199 109.655L106.649 110.643L107.212 111.624L204.626 281.312L187.739 317.195L64.6557 105.089L100.419 42.1154L102.115 39.1278H98.6794H25.589L4.31679 2.66113H247.28L285.732 65.2683L287.481 68.1153L289.164 65.2292Z" stroke="#E2255E" stroke-width="4" />
</svg>
